<?xml version="1.0" encoding="utf-8"?>
<!-- Generator: Adobe Illustrator 19.1.0, SVG Export Plug-In . SVG Version: 6.00 Build 0)  -->
<svg xmlns="http://www.w3.org/2000/svg" xmlns:xlink="http://www.w3.org/1999/xlink" version="1.1" id="Layer_1" x="0px" y="0px" viewBox="0 0 64 64" enable-background="new 0 0 64 64" xml:space="preserve" width="512px" height="512px">
<g id="Plate_2_">
	<path d="M33,15.1050501c-11.020998,0-19.9867973,8.9667997-19.9867973,19.9873009S21.979002,55.0796509,33,55.0796509   S52.9867973,46.1128502,52.9867973,35.09235S44.0209999,15.1050501,33,15.1050501z M33,53.1050491   c-9.9325981,0-18.0131989-8.080101-18.0131989-18.0126991c0-9.9326992,8.0806007-18.0126991,18.0131989-18.0126991   S51.0131989,25.1596508,51.0131989,35.09235C51.0131989,45.0249481,42.9325981,53.1050491,33,53.1050491z" fill="#FFFFFF"/>
	<path d="M33,25.0903492c-5.5150986,0-10.0018978,4.4873009-10.0018978,10.0020008   c0,5.5145988,4.4867992,10.0018997,10.0018978,10.0018997c5.5152016,0,10.0019989-4.4873009,10.0019989-10.0018997   C43.0019989,29.5776501,38.5152016,25.0903492,33,25.0903492z M33,43.0903511c-4.410099,0-7.9979992-3.5879021-7.9979992-7.9980011   c0-4.4102001,3.5879002-7.9981003,7.9979992-7.9981003c4.410202,0,7.9981003,3.5879002,7.9981003,7.9981003   C40.9981003,39.502449,37.410202,43.0903511,33,43.0903511z" fill="#FFFFFF"/>
	<path d="M64,9.5766497c0-0.4813995-0.3432007-0.8944998-0.8164024-0.9833994   c-0.1918983-0.0351-0.3857002-0.0537004-0.5775986-0.0537004c-3.9838982,0-6.1338005,7.1280003-6.1338005,13.8340006   c0,6.3568993,1.9342995,13.0807991,5.5278015,13.7667007v18.3201981c0,0.5527992,0.4477997,1,1,1c0.5522995,0,1-0.4472008,1-1   V35.2085495l-0.0034027-0.0173988C63.9965973,35.1843491,64,35.1782494,64,35.1782494V9.5766497z M58.4721985,22.3735504   c0-6.5049,1.8950005-10.7822008,3.5278015-11.6640005v23.3291016   C60.3671989,33.1557503,58.4721985,28.8784504,58.4721985,22.3735504z" fill="#FFFFFF"/>
	<path d="M11.267602,8.5395498c-0.5522003,0-1,0.4473-1,1v7.7002001c0,1.1044998-0.4302006,2.142601-1.2114,2.9228992   c-0.5375004,0.5386009-1.2024002,0.896101-1.9224005,1.0749016V9.5395498c0-0.5527-0.4477-1-1-1c-0.5521998,0-1,0.4473-1,1   v11.6980009c-0.7200999-0.1788006-1.385-0.5363007-1.9227998-1.0749016c-0.7808001-0.7802982-1.211-1.8183994-1.211-2.9228992   V9.5395498c0-0.5527-0.4477001-1-1.0000001-1c-0.5522,0-1,0.4473-1,1v7.7002001c0,1.6387005,0.6382,3.1797009,1.7969,4.3369007   c0.9180001,0.9186993,2.0784998,1.5040989,3.3368998,1.7094994v31.1742992c0,0.5527992,0.4478002,1,1,1c0.5523,0,1-0.4472008,1-1   V23.28615c1.2581997-0.2056007,2.4189997-0.7908001,3.3364-1.7094994c1.1591997-1.1571999,1.7974005-2.6972008,1.7974005-4.3369007   V9.5395498C12.267602,8.9868498,11.8198013,8.5395498,11.267602,8.5395498z" fill="#FFFFFF"/>
</g>
<g>
</g>
<g>
</g>
<g>
</g>
<g>
</g>
<g>
</g>
<g>
</g>
<g>
</g>
<g>
</g>
<g>
</g>
<g>
</g>
<g>
</g>
<g>
</g>
<g>
</g>
<g>
</g>
<g>
</g>
</svg>
